<svg width="233" height="57" viewBox="0 0 233 57" fill="none" xmlns="http://www.w3.org/2000/svg">
<path d="M15.6497 31.0939C15.338 31.8929 14.7283 32.3889 13.8476 32.3889H9.17301C8.33294 32.3889 7.62836 31.8929 7.39802 31.0939L0 10.4152H5.63659L10.135 24.9082C10.4873 26.1618 10.8938 27.4568 11.1919 28.7105H11.7745C12.1674 27.4568 12.5197 26.1618 12.9127 24.9082L17.3704 10.4152H23.0612L15.6497 31.0939ZM159.911 22.9794H159.301L153.882 32.3889H148.231L155.06 21.092L148.76 10.4152H154.356L159.261 19.0255H159.965L164.857 10.4152H170.453L164.152 21.092L170.981 32.3889H165.344L159.911 22.9794ZM145.847 17.455V32.3889H141.619L141.05 29.0687C139.506 30.777 136.674 32.8848 132.799 32.8848C128.829 32.8848 125.97 30.6392 125.97 26.52V24.2744C125.97 20.7752 128.3 18.7638 132.365 18.7638H140.468V17.4137C140.427 14.9063 139.587 14.2726 136.498 14.2726C134.519 14.2726 130.861 14.4517 127.46 14.7272L126.932 10.8698C130.021 10.2912 134.872 9.79521 137.744 9.79521C143.069 9.79521 145.847 11.5862 145.847 17.455ZM134.126 28.4901C135.793 28.4901 138.218 27.7737 140.468 25.8863V22.4835H133.598C131.823 22.5661 131.295 23.4616 131.295 24.9495V25.8036C131.295 27.6773 132.189 28.4901 134.126 28.4901ZM122.311 15.8845V32.3889H117.054V17.5514C117.013 15.3059 116.404 14.4104 114.371 14.4104C112.569 14.4104 111.377 15.0854 108.545 17.0555V32.3889H103.396V17.5514C103.437 15.1681 102.556 14.4104 100.7 14.4104C99.0197 14.4104 97.8409 15.0441 94.9277 17.0142V32.3889H89.5892V10.4152H93.9522L94.3045 13.6527C97.0821 11.1315 99.7242 9.79521 102.732 9.79521C105.645 9.79521 107.488 11.0489 108.247 13.4736C110.93 11.0076 113.572 9.79521 116.444 9.79521C120.279 9.79521 122.311 11.9444 122.311 15.8845ZM80.2401 14.369V25.5281C80.2401 27.4568 80.904 28.0905 82.8416 28.0905H85.7954L86.378 32.1133C84.874 32.6093 82.137 32.8848 80.8092 32.8848C77.0288 32.8848 74.9558 30.5566 74.9558 26.4649L74.9016 14.369H71.0264V10.6494L74.9016 10.4152V4.10547H80.2401V10.4152H86.5948V14.369H80.2401ZM68.2894 15.8845V32.3889H62.9103V17.5514C62.9103 15.0854 62.3412 14.4104 60.6204 14.4104C58.466 14.4104 56.5149 15.4023 53.4798 17.0968L53.5205 32.3889H48.1413V10.4152H52.6398L52.9921 13.694C56.0813 11.2693 59.1706 9.79521 62.3412 9.79521C66.1757 9.79521 68.2894 11.9444 68.2894 15.8845ZM43.3448 27.9528L43.819 31.452C41.5292 32.5679 37.654 32.9261 34.917 32.9261C27.0719 32.9261 24.1181 29.7024 24.1181 21.3538C24.1181 12.6607 27.248 9.79521 34.5647 9.79521C41.5698 9.79521 44.4017 12.4403 44.4017 17.4137C44.4017 21.3538 42.6267 23.6958 38.616 23.6958H29.7953C30.2425 27.6773 31.8684 28.4901 35.581 28.4901C37.654 28.4901 40.7433 28.2696 43.3448 27.9528ZM29.6734 19.8797H37.1256C38.8464 19.8797 39.0632 18.4883 39.0632 17.331C39.0632 14.989 38.0876 14.0935 34.7815 14.0935C31.0419 14.0935 29.8495 15.2645 29.6734 19.8797Z" fill="#0088CE"/>
<path fill-rule="evenodd" clip-rule="evenodd" d="M125.109 46.0138V54.2109H123.199V46.5649C123.199 45.1046 122.779 44.6224 121.681 44.6224C120.394 44.6224 119.256 45.2286 117.522 46.3307V54.2109H115.652V38.5056H117.522L117.549 42.8314C117.549 43.6443 117.508 44.3882 117.413 44.9668C119.026 43.782 120.597 43.0105 122.183 43.0105C124.093 43.0105 125.109 44.0438 125.109 46.0138ZM206.401 3.66663C220.628 3.66663 232.159 15.3905 232.159 29.8697C232.159 44.3352 220.628 56.0591 206.401 56.0591C192.161 56.0591 180.63 44.3352 180.63 29.8697C180.63 15.3905 192.161 3.66663 206.401 3.66663ZM204.166 12.9658C205.575 11.6571 207.648 11.6433 208.976 12.8418L212.837 16.3687V14.9497C212.837 13.944 213.474 13.8062 214.233 13.8062C214.978 13.8062 215.371 14.2333 215.371 14.9497V18.6969L220.33 23.2432C221.997 24.7862 222.119 26.1087 222.119 28.0926L222.105 36.7029V36.9096C222.105 38.2184 222.187 39.4583 221.482 40.7119C220.344 42.7095 217.769 43.3984 215.683 43.0126C213.217 42.5718 211.184 41.0426 209.26 39.5547C207.445 38.1495 205.995 37.6673 203.624 37.7637L200.209 37.9566C202.431 37.1851 204.315 35.8901 207.079 36.1932C208.813 36.3861 210.073 37.0749 211.374 38.0668C213.285 39.5271 216.252 41.4421 218.582 40.1333C219.788 39.4583 219.585 38.1082 219.585 36.7029V27.6517C219.572 25.9296 219.219 25.7092 217.986 24.5795L207.269 14.8119C206.903 14.4813 206.334 14.495 205.887 14.9083L195.155 24.676C193.651 26.0261 193.678 26.4394 193.678 28.2717L193.651 37.75C193.651 38.3699 193.706 39.1414 194.004 39.6236C194.451 40.3537 194.966 40.4088 195.887 40.464C200.033 40.7119 200.616 39.2929 204.288 39.7613C206.103 39.9956 208.041 40.7119 209.301 42.1585C210.141 43.1228 210.615 44.4316 210.412 45.6164C209.477 42.7646 206.672 42.1171 204.084 41.9794C200.9 41.8141 200.44 43.357 195.372 42.9713C193.909 42.8611 192.622 42.2687 191.863 40.8635C191.063 39.4445 191.212 37.9291 191.185 36.882L191.172 27.4037C191.172 25.2821 192.052 24.0698 193.475 22.7748L204.166 12.9658ZM208.529 24.6897C210.141 24.6897 209.924 26.1087 209.924 27.2384H207.418V24.6897H208.529ZM205.846 24.6897V27.2384H203.353C203.353 26.1087 203.136 24.6897 204.748 24.6897H205.846ZM207.418 28.8365H209.924C209.924 29.9524 210.141 31.3714 208.529 31.3714H207.418V28.8365ZM203.353 28.8365H205.846V31.3714C204.735 31.3714 203.353 31.5918 203.353 29.9524V28.8365ZM230.79 29.8697C230.79 16.162 219.87 5.05806 206.401 5.05806C192.92 5.05806 181.999 16.162 181.999 29.8697C181.999 43.5637 192.92 54.6676 206.401 54.6676C219.87 54.6676 230.79 43.5637 230.79 29.8697ZM168.414 52.5991L168.617 53.8803C167.601 54.3074 165.677 54.4865 164.444 54.4865C160.731 54.4865 159.295 52.9159 159.295 48.7141C159.295 44.4295 160.772 43.0105 164.24 43.0105C167.492 43.0105 168.861 44.2229 168.861 46.5787C168.874 48.535 168.088 49.6784 166.3 49.6784H161.3C161.476 52.2822 162.479 52.8746 164.687 52.8746C165.826 52.8746 167.316 52.7506 168.414 52.5991ZM161.259 48.2043H165.812C166.774 48.2043 166.977 47.3915 166.977 46.5787C166.95 45.1872 166.246 44.6224 164.335 44.6224C162.099 44.6224 161.327 45.4352 161.259 48.2043ZM156.598 46.0138V54.2109H154.756V46.5649C154.729 45.2148 154.268 44.6224 153.076 44.6224C151.964 44.6224 151.165 45.1184 149.539 46.3169V54.2109H147.723V46.5649C147.723 45.1459 147.168 44.6224 146.043 44.6224C144.959 44.6224 144.174 45.1046 142.52 46.3169V54.2109H140.637V43.2861H142.182L142.29 45.0081C143.794 43.6856 145.19 43.0105 146.694 43.0105C148.171 43.0105 149.092 43.658 149.404 44.9668C150.881 43.658 152.303 43.0105 153.739 43.0105C155.582 43.0105 156.598 44.0438 156.598 46.0138ZM137.9 48.7554C137.9 52.9573 136.545 54.514 132.833 54.514C129.147 54.514 127.779 52.9573 127.779 48.7554C127.779 44.5811 129.147 43.0105 132.833 43.0105C136.545 43.0105 137.9 44.5811 137.9 48.7554ZM129.743 48.7554C129.743 51.9516 130.502 52.8884 132.833 52.8884C135.177 52.8884 135.949 51.9516 135.949 48.7554C135.949 45.573 135.177 44.6224 132.833 44.6224C130.502 44.6224 129.743 45.573 129.743 48.7554Z" fill="url(#paint0_linear_21_4)"/>
<defs>
<linearGradient id="paint0_linear_21_4" x1="239.961" y1="52.3275" x2="239.961" y2="2.18028" gradientUnits="userSpaceOnUse">
<stop stop-color="#21A73F"/>
<stop offset="1" stop-color="#98C22A"/>
</linearGradient>
</defs>
</svg>
